<svg width="1000" height="200" viewBox="0 0 1000 200" fill="none" xmlns="http://www.w3.org/2000/svg">
  <!-- Background -->
  <rect width="1000" height="200" rx="10" fill="#F8F9FA"/>
  
  <!-- Dividers -->
  <line x1="333" y1="40" x2="333" y2="160" stroke="#E9ECEF" stroke-width="2"/>
  <line x1="666" y1="40" x2="666" y2="160" stroke="#E9ECEF" stroke-width="2"/>
  
  <!-- Section 1: Frota Própria -->
  <g transform="translate(70, 100)">
    <!-- Icon -->
    <path d="M0 10H40L50 0H70L80 10H90V50H0V10Z" fill="none" stroke="#2B3990" stroke-width="3"/>
    <rect x="10" y="40" width="20" height="20" rx="10" fill="none" stroke="#2B3990" stroke-width="3"/>
    <rect x="60" y="40" width="20" height="20" rx="10" fill="none" stroke="#2B3990" stroke-width="3"/>
    
    <!-- Text -->
    <text x="120" y="-30" font-family="Arial" font-weight="bold" font-size="24" fill="#2B3990">FROTA PRÓPRIA</text>
    <text x="120" y="0" font-family="Arial" font-size="16" fill="#6C757D">Entrega rápida e Segura</text>
  </g>
  
  <!-- Section 2: Retire na Loja -->
  <g transform="translate(400, 100)">
    <!-- Icon -->
    <path d="M40 -30 L60 -30 L60 0 L80 0 L50 30 L20 0 L40 0 L40 -30Z" fill="none" stroke="#2B3990" stroke-width="3"/>
    <circle cx="50" cy="-40" r="15" fill="none" stroke="#2B3990" stroke-width="3"/>
    <path d="M30 -20 C30 -40, 70 -40, 70 -20" fill="none" stroke="#2B3990" stroke-width="3"/>
    
    <!-- Text -->
    <text x="120" y="-30" font-family="Arial" font-weight="bold" font-size="24" fill="#2B3990">RETIRE</text>
    <text x="120" y="0" font-family="Arial" font-weight="bold" font-size="24" fill="#2B3990">NA LOJA</text>
    <text x="120" y="30" font-family="Arial" font-size="16" fill="#6C757D">Estacionamento</text>
    <text x="120" y="50" font-family="Arial" font-size="16" fill="#6C757D">gratuito e amplo</text>
  </g>
  
  <!-- Section 3: Ajuda na Carga -->
  <g transform="translate(730, 100)">
    <!-- Icon -->
    <path d="M30 -20 C30 -40, 70 -40, 70 -20 L70 20 L50 40 L30 20 Z" fill="none" stroke="#2B3990" stroke-width="3"/>
    <circle cx="50" cy="-30" r="10" fill="none" stroke="#2B3990" stroke-width="3"/>
    <path d="M80 0 L100 -10 L110 10 L90 20 Z" fill="none" stroke="#2B3990" stroke-width="3"/>
    
    <!-- Text -->
    <text x="120" y="-30" font-family="Arial" font-weight="bold" font-size="24" fill="#2B3990">AJUDA NA</text>
    <text x="120" y="0" font-family="Arial" font-weight="bold" font-size="24" fill="#2B3990">CARGA</text>
    <text x="120" y="30" font-family="Arial" font-size="16" fill="#6C757D">Equipe preparada</text>
    <text x="120" y="50" font-family="Arial" font-size="16" fill="#6C757D">para itens pesados</text>
  </g>
</svg>